# xmcd CD database file
#
# Track frame offsets:
#	150
#	20067
#	38523
#	63835
#	96086
#	118180
#	138857
#	155568
#	172968
#	190213
#	211826
#	221975
#	238297
#	258639
#	273145
#
# Disc length: 3909 seconds
#
# Revision: 0
# Processed by: cddbd v1.5.1PL0 Copyright (c) Steve Scherf et al.
# Submitted via: CDex 1.50
#
DISCID=d90f430f
DTITLE=Paris Washboard - One more Time!
DYEAR=1998
DGENRE=Jazz
TTITLE0=The Darktown Strutters' Ball
TTITLE1=Oh Daddy Blues (You Won't Have No Mamma At All)
TTITLE2=Supraton In Marrakouch
TTITLE3=When It's Sleepy Time Down South
TTITLE4=Runnin' Wild
TTITLE5=One More Time!
TTITLE6=Swing It Easy
TTITLE7=Yellow Dog Blues
TTITLE8=Bugle Call Rag
TTITLE9=Do You Know What It Means To Miss New Orleans?
TTITLE10=Oh, You Devil
TTITLE11='Deed I Do
TTITLE12=New Orleans Stomp
TTITLE13=Sweet Man
TTITLE14=That's A Plenty
EXTD=YEAR: 1998
EXTT0=
EXTT1=
EXTT2=
EXTT3=
EXTT4=
EXTT5=
EXTT6=
EXTT7=
EXTT8=
EXTT9=
EXTT10=
EXTT11=
EXTT12=
EXTT13=
EXTT14=
PLAYORDER=
